<?xml version="1.0" encoding="UTF-8"?>
<svg version="1.1" xmlns="http://www.w3.org/2000/svg" width="245" height="313">
<path d="M0 0 C0.00808685 1.01619919 0.01617371 2.03239838 0.02450562 3.07939148 C0.10200496 12.65815515 0.18975392 22.23677744 0.28752708 31.81535625 C0.3374636 36.73974988 0.38379396 41.66412234 0.421875 46.58862305 C0.45876109 51.34142207 0.50513024 56.09404278 0.55806351 60.84668922 C0.57658976 62.65952233 0.59170425 64.47239364 0.60334396 66.28528404 C0.62023665 68.82538468 0.64927894 71.36507856 0.68115234 73.9050293 C0.68331253 74.65381348 0.68547272 75.40259766 0.68769836 76.17407227 C0.76367934 80.91686873 1.11090697 84.96717163 4.4375 88.546875 C8.26503137 91.49407416 10.3791661 93.10717591 15.17431641 93.20532227 C16.03505768 93.22526749 16.89579895 93.24521271 17.78262329 93.26576233 C19.1779982 93.29083107 19.1779982 93.29083107 20.6015625 93.31640625 C22.02896255 93.3475779 22.02896255 93.3475779 23.48519897 93.37937927 C26.53172432 93.44488133 29.57833743 93.5037628 32.625 93.5625 C34.68750916 93.60568459 36.75000937 93.64929886 38.8125 93.69335938 C43.87490954 93.8005634 48.93740755 93.90182902 54 94 C53.98952637 92.96182129 53.97905273 91.92364258 53.96826172 90.85400391 C53.9317392 86.95885745 53.90898358 83.06372576 53.89013672 79.16845703 C53.88015197 77.49069666 53.86655943 75.81295336 53.84912109 74.13525391 C53.6134455 50.85882334 53.6134455 50.85882334 59 42.375 C59.515625 41.53710938 60.03125 40.69921875 60.5625 39.8359375 C61.036875 39.23007813 61.51125 38.62421875 62 38 C62.66 38 63.32 38 64 38 C64 37.34 64 36.68 64 36 C65.37115097 35.20168544 66.74714884 34.4116939 68.125 33.625 C68.89070312 33.18414062 69.65640625 32.74328125 70.4453125 32.2890625 C79.01601715 27.96439502 89.32893633 27.17738491 98.48828125 30.12109375 C101.07684854 31.3062614 103.55245759 32.54806806 106 34 C106 34.66 106 35.32 106 36 C106.556875 36.185625 107.11375 36.37125 107.6875 36.5625 C114.34554661 40.70128573 116.22182126 47.82721144 118 55 C118.17388843 55.59142131 118.34777685 56.18284262 118.52693462 56.79218578 C119.09849513 59.45968054 119.13552951 61.92785188 119.14717102 64.65705872 C119.15790398 66.38714172 119.15790398 66.38714172 119.16885376 68.1521759 C119.17154266 69.41398178 119.17423157 70.67578766 119.17700195 71.97583008 C119.18327055 73.3215248 119.1899177 74.6672178 119.19691467 76.01290894 C119.21792785 80.43177086 119.2283213 84.85063297 119.23828125 89.26953125 C119.24233122 90.79593104 119.24644821 92.32233066 119.25063133 93.84873009 C119.26968481 101.02858103 119.28390993 108.20842174 119.2922433 115.38829309 C119.30198672 123.6448286 119.32822926 131.90109395 119.36874419 140.15753442 C119.39905506 146.55694947 119.41372665 152.9562878 119.41702431 159.35577315 C119.41935975 163.16866316 119.42811956 166.98126469 119.45348549 170.79407692 C119.47703192 174.39177562 119.48089497 177.98900143 119.47072411 181.58675766 C119.4700046 183.51021679 119.48891207 185.43365333 119.50878906 187.35700989 C119.41293286 203.70720067 114.24959588 218.18800515 104 231 C103.34 231 102.68 231 102 231 C102 231.66 102 232.32 102 233 C101.34 233 100.68 233 100 233 C99.67 233.99 99.34 234.98 99 236 C85.94026267 247.28147148 71.93821685 251.52615516 55 253 C53.46335608 249.92671216 53.84696213 246.69793314 53.84228516 243.32495117 C53.83720444 242.5328978 53.83212372 241.74084442 53.82688904 240.92478943 C53.8161753 239.20163777 53.80755907 237.47847211 53.80076981 235.75530052 C53.7889957 233.02749196 53.76954624 230.29984278 53.74765015 227.57209778 C53.68598748 219.81529039 53.63199792 212.05849841 53.59863281 204.30151367 C53.57768421 199.55933566 53.54237746 194.81744662 53.49787521 190.07543373 C53.48371424 188.26818558 53.47499255 186.46088628 53.47182083 184.65358543 C53.46691059 182.12316047 53.44374959 179.59350164 53.41650391 177.06323242 C53.41951004 176.31759033 53.42251617 175.57194824 53.4256134 174.80371094 C53.33958452 169.42200497 51.99933051 166.34704016 48.5625 162.3125 C45.42896872 159.68033372 42.66214297 158.75286135 38.59863281 158.68115234 C37.7380426 158.66128265 36.87745239 158.64141296 35.99078369 158.62094116 C35.07085632 158.60938995 34.15092896 158.59783875 33.203125 158.5859375 C32.25435486 158.56657135 31.30558472 158.5472052 30.32806396 158.5272522 C27.30213367 158.46754341 24.27616516 158.42110567 21.25 158.375 C19.19659813 158.33681223 17.14321214 158.29776003 15.08984375 158.2578125 C10.06002504 158.16184892 5.03013135 158.07778554 0 158 C0.01047363 159.03817871 0.02094727 160.07635742 0.03173828 161.14599609 C0.0682608 165.04114255 0.09101642 168.93627424 0.10986328 172.83154297 C0.11984803 174.50930334 0.13344057 176.18704664 0.15087891 177.86474609 C0.29176403 191.77922344 -0.10276942 202.15415414 -8 214 C-8.66 214 -9.32 214 -10 214 C-10 214.66 -10 215.32 -10 216 C-13 218 -13 218 -16 218 C-16 218.66 -16 219.32 -16 220 C-24.64320807 223.70423203 -34.60560444 224.66810319 -43.78515625 222.2734375 C-46.00856567 221.33525788 -47.96637852 220.29601697 -50 219 C-50.6909375 218.56816406 -51.381875 218.13632813 -52.09375 217.69140625 C-54.0625 216.375 -54.0625 216.375 -57 214 C-57 213.34 -57 212.68 -57 212 C-57.66 212 -58.32 212 -59 212 C-64.72899638 202.64263925 -65.29813434 195.11656457 -65.29052734 184.22460938 C-65.29651899 182.82920983 -65.303326 181.43381358 -65.31088257 180.03842163 C-65.32849334 176.26107208 -65.3332361 172.48381326 -65.33451414 168.70642662 C-65.33594005 166.33951766 -65.34021814 163.97263144 -65.34550858 161.60572815 C-65.36399849 153.32795765 -65.37218123 145.0502514 -65.37060547 136.77246094 C-65.36940705 129.09092797 -65.39045285 121.40967733 -65.4220928 113.72821569 C-65.44837689 107.10792408 -65.45896759 100.48772391 -65.45769465 93.86738062 C-65.4571882 89.92488832 -65.46269244 85.98264663 -65.48405075 82.04020691 C-65.50363684 78.32343921 -65.50342126 74.60715575 -65.48901749 70.89036942 C-65.4859804 68.90254576 -65.50246558 66.91472098 -65.51989746 64.92697144 C-65.40677699 48.44709841 -60.34325478 33.92906848 -50 21 C-49.34 21 -48.68 21 -48 21 C-48 20.34 -48 19.68 -48 19 C-47.34 19 -46.68 19 -46 19 C-45.67 18.01 -45.34 17.02 -45 16 C-33.43425936 6.13903616 -15.72192631 -4.42543111 0 0 Z " fill="#00B7E9" transform="translate(95,34)"/>
<path d="M0 0 C0.01213028 1.52429878 0.01213028 1.52429878 0.02450562 3.07939148 C0.10200496 12.65815515 0.18975392 22.23677744 0.28752708 31.81535625 C0.3374636 36.73974988 0.38379396 41.66412234 0.421875 46.58862305 C0.45876109 51.34142207 0.50513024 56.09404278 0.55806351 60.84668922 C0.57658976 62.65952233 0.59170425 64.47239364 0.60334396 66.28528404 C0.62023665 68.82538468 0.64927894 71.36507856 0.68115234 73.9050293 C0.68331253 74.65381348 0.68547272 75.40259766 0.68769836 76.17407227 C0.76367934 80.91686873 1.11090697 84.96717163 4.4375 88.546875 C8.26503137 91.49407416 10.3791661 93.10717591 15.17431641 93.20532227 C16.03505768 93.22526749 16.89579895 93.24521271 17.78262329 93.26576233 C19.1779982 93.29083107 19.1779982 93.29083107 20.6015625 93.31640625 C22.02896255 93.3475779 22.02896255 93.3475779 23.48519897 93.37937927 C26.53172432 93.44488133 29.57833743 93.5037628 32.625 93.5625 C34.68750916 93.60568459 36.75000937 93.64929886 38.8125 93.69335938 C43.87491127 93.80137379 48.93738701 93.90044234 54 94 C54 82.12 54 70.24 54 58 C54.33 58 54.66 58 55 58 C55 70.21 55 82.42 55 95 C58.96 95 62.92 95 67 95 C77.61597372 96.58463908 86.65460423 101.43022035 95 108 C95 108.66 95 109.32 95 110 C95.680625 110.165 96.36125 110.33 97.0625 110.5 C105.72250914 114.92213233 112.7205724 127.10011104 115.72265625 136.1875 C116.17167974 139.12196338 116.05693622 142.03931651 116 145 C114.5 143.75 114.5 143.75 113 142 C113 140.68 113 139.36 113 138 C112.34 138 111.68 138 111 138 C110.67 136.02 110.34 134.04 110 132 C109.34 132 108.68 132 108 132 C106.74609375 130.35546875 106.74609375 130.35546875 105.4375 128.1875 C105.00308594 127.47980469 104.56867188 126.77210938 104.12109375 126.04296875 C103 124 103 124 102 121 C100.69131055 120.28616939 99.35294171 119.62591609 98 119 C96.60287176 117.94535845 95.22914099 116.85929631 93.875 115.75 C71.79527635 98.48114296 46.27256923 100.83771399 19.60473633 100.52319336 C16.37042527 100.48339892 13.1364608 100.43196012 9.90234375 100.37890625 C8.92514877 100.3704921 7.9479538 100.36207794 6.94114685 100.35340881 C1.2933975 100.25185767 -3.57462046 99.58135152 -9 98 C-10.05703125 97.73960937 -11.1140625 97.47921875 -12.203125 97.2109375 C-20.65521399 94.89203103 -26.92240482 91.06880713 -34 86 C-34.88300781 85.4740625 -35.76601563 84.948125 -36.67578125 84.40625 C-40.2627996 82.23595318 -43.21586149 79.61440281 -45.0625 75.8125 C-45.84036152 73.83173419 -45.84036152 73.83173419 -47.86328125 73.2265625 C-50.79785951 71.54199655 -51.60677881 69.55522396 -53.125 66.5625 C-54.65667727 63.58247505 -56.13905447 60.79141829 -58 58 C-58.4140625 55.30078125 -58.4140625 55.30078125 -58.625 52.3125 C-58.69976562 51.31863281 -58.77453125 50.32476562 -58.8515625 49.30078125 C-58.92503906 48.16189453 -58.92503906 48.16189453 -59 47 C-60.32 47 -61.64 47 -63 47 C-60.18182311 37.514429 -56.22959667 28.74490397 -50 21 C-49.34 21 -48.68 21 -48 21 C-48 20.34 -48 19.68 -48 19 C-47.34 19 -46.68 19 -46 19 C-45.67 18.01 -45.34 17.02 -45 16 C-33.43425936 6.13903616 -15.72192631 -4.42543111 0 0 Z " fill="#01B7EA" transform="translate(95,34)"/>
<path d="M0 0 C0.66 0 1.32 0 2 0 C2.185625 1.14662109 2.185625 1.14662109 2.375 2.31640625 C3.68876507 9.1397736 5.60041728 14.83354951 8.875 20.9375 C9.20242187 21.55117432 9.52984375 22.16484863 9.8671875 22.79711914 C11.59475686 25.89417524 13.44455066 28.6241216 15.7578125 31.31640625 C18 34 18 34 18 36 C18.57878906 36.26296875 19.15757813 36.5259375 19.75390625 36.796875 C22.11313426 38.06060061 23.90297172 39.51616016 25.9375 41.25 C37.37836947 50.27829732 49.85302152 52.99516788 64 54 C65.17357071 61.45452114 65.18367888 68.83974919 65.1875 76.375 C65.19974609 77.63828125 65.21199219 78.9015625 65.22460938 80.203125 C65.24381982 92.52342175 63.82392147 100.76411779 57 111 C56.34 111 55.68 111 55 111 C55 111.66 55 112.32 55 113 C52 115 52 115 49 115 C49 115.66 49 116.32 49 117 C40.35679193 120.70423203 30.39439556 121.66810319 21.21484375 119.2734375 C18.99143433 118.33525788 17.03362148 117.29601697 15 116 C14.3090625 115.56816406 13.618125 115.13632813 12.90625 114.69140625 C10.9375 113.375 10.9375 113.375 8 111 C8 110.34 8 109.68 8 109 C7.34 109 6.68 109 6 109 C1.16827256 101.10817851 -0.30349964 94.66153353 -0.22705078 85.48461914 C-0.22734283 84.55700775 -0.22763489 83.62939636 -0.22793579 82.67367554 C-0.22654967 79.62740513 -0.21102231 76.58138359 -0.1953125 73.53515625 C-0.19157982 71.41523879 -0.18873405 69.29531959 -0.18673706 67.17539978 C-0.1791207 61.61053662 -0.15948937 56.04577875 -0.1373291 50.48095703 C-0.11682761 44.79656397 -0.10772615 39.1121538 -0.09765625 33.42773438 C-0.07624159 22.28511013 -0.04212978 11.14256384 0 0 Z " fill="#017DC2" transform="translate(30,137)"/>
<path d="M0 0 C0.91265625 0.54140625 0.91265625 0.54140625 1.84375 1.09375 C1.84375 1.75375 1.84375 2.41375 1.84375 3.09375 C2.400625 3.279375 2.9575 3.465 3.53125 3.65625 C10.18929661 7.79503573 12.06557126 14.92096144 13.84375 22.09375 C14.01819358 22.72380573 14.19263716 23.35386147 14.37236691 24.0030098 C15.15441943 27.47167185 14.97319501 30.99567575 14.95727539 34.53417969 C14.95742142 35.38332443 14.95756744 36.23246918 14.9577179 37.10734558 C14.95702201 39.9101315 14.94924476 42.71285071 14.94140625 45.515625 C14.93954092 47.46046919 14.93811756 49.40531386 14.93711853 51.35015869 C14.93330242 56.46622009 14.92347984 61.58225305 14.91241455 66.69830322 C14.90218098 71.91995865 14.89761674 77.14161868 14.89257812 82.36328125 C14.88185678 92.60678332 14.8647912 102.85026429 14.84375 113.09375 C14.18375 113.09375 13.52375 113.09375 12.84375 113.09375 C12.54984375 111.80404297 12.54984375 111.80404297 12.25 110.48828125 C9.18317833 98.36640421 3.68017101 88.13099876 -5.15625 79.09375 C-5.79046875 78.78824219 -6.4246875 78.48273438 -7.078125 78.16796875 C-9.60916227 76.85963181 -11.16653408 75.12187742 -13.15625 73.09375 C-23.91387299 65.03560544 -36.05892235 62.97309968 -49.15625 62.09375 C-49.28063696 56.01065372 -49.37095951 49.92831149 -49.4309082 43.84423828 C-49.45592089 41.77835174 -49.48994236 39.71255252 -49.53344727 37.64697266 C-49.59468558 34.66286576 -49.6225926 31.67993713 -49.64453125 28.6953125 C-49.67033768 27.78447906 -49.6961441 26.87364563 -49.72273254 25.93521118 C-49.7262719 17.68642633 -46.66251347 11.85314521 -42.15625 5.09375 C-41.49625 5.09375 -40.83625 5.09375 -40.15625 5.09375 C-40.15625 4.43375 -40.15625 3.77375 -40.15625 3.09375 C-38.78509903 2.29543544 -37.40910116 1.5054439 -36.03125 0.71875 C-35.26554688 0.27789062 -34.49984375 -0.16296875 -33.7109375 -0.6171875 C-22.81854826 -6.11334721 -10.63069164 -5.62801322 0 0 Z " fill="#017DC2" transform="translate(199.15625,66.90625)"/>
<path d="M0 0 C2.7053871 4.05808065 5 8.04889399 5 13 C5.66 13 6.32 13 7 13 C8.5078125 15.1171875 8.5078125 15.1171875 10.125 17.875 C10.66382813 18.77992187 11.20265625 19.68484375 11.7578125 20.6171875 C13 23 13 23 13 25 C13.66 25 14.32 25 15 25 C16.48046875 26.5390625 16.48046875 26.5390625 18.1875 28.625 C26.83457834 38.72805456 37.50749014 45.53505075 50 50 C50.88129578 50.34009094 51.76259155 50.68018188 52.67059326 51.03057861 C60.17827112 53.78435386 66.80462195 54.60046174 74.765625 54.609375 C76.50474152 54.63417938 76.50474152 54.63417938 78.2789917 54.65948486 C81.93605043 54.70757725 85.59269455 54.72925002 89.25 54.75 C91.74871835 54.778192 94.2474177 54.80812387 96.74609375 54.83984375 C102.83091285 54.91656012 108.91446562 54.95744382 115 55 C115 43.12 115 31.24 115 19 C115.33 19 115.66 19 116 19 C116 31.21 116 43.42 116 56 C119.96 56 123.92 56 128 56 C138.61597372 57.58463908 147.65460423 62.43022035 156 69 C156 69.66 156 70.32 156 71 C156.680625 71.165 157.36125 71.33 158.0625 71.5 C166.72250914 75.92213233 173.7205724 88.10011104 176.72265625 97.1875 C177.17167974 100.12196338 177.05693622 103.03931651 177 106 C175.5 104.75 175.5 104.75 174 103 C174 101.68 174 100.36 174 99 C173.34 99 172.68 99 172 99 C171.67 97.02 171.34 95.04 171 93 C170.34 93 169.68 93 169 93 C167.74609375 91.35546875 167.74609375 91.35546875 166.4375 89.1875 C166.00308594 88.47980469 165.56867188 87.77210938 165.12109375 87.04296875 C164 85 164 85 163 82 C161.69131055 81.28616939 160.35294171 80.62591609 159 80 C157.60287176 78.94535845 156.22914099 77.85929631 154.875 76.75 C132.79527635 59.48114296 107.27256923 61.83771399 80.60473633 61.52319336 C77.37042527 61.48339892 74.1364608 61.43196012 70.90234375 61.37890625 C69.43655128 61.36628502 69.43655128 61.36628502 67.94114685 61.35340881 C62.2933975 61.25185767 57.42537954 60.58135152 52 59 C50.94296875 58.73960937 49.8859375 58.47921875 48.796875 58.2109375 C40.34478601 55.89203103 34.07759518 52.06880713 27 47 C26.11699219 46.4740625 25.23398437 45.948125 24.32421875 45.40625 C20.7372004 43.23595318 17.78413851 40.61440281 15.9375 36.8125 C15.15963848 34.83173419 15.15963848 34.83173419 13.13671875 34.2265625 C10.20214049 32.54199655 9.39322119 30.55522396 7.875 27.5625 C6.34332273 24.58247505 4.86094553 21.79141829 3 19 C2.5859375 16.30078125 2.5859375 16.30078125 2.375 13.3125 C2.30023438 12.31863281 2.22546875 11.32476562 2.1484375 10.30078125 C2.09945312 9.54152344 2.05046875 8.78226563 2 8 C0.68 8 -0.64 8 -2 8 C-1.34 5.36 -0.68 2.72 0 0 Z " fill="#00D7F4" transform="translate(34,73)"/>
<path d="M0 0 C15.36623209 -1.01315816 28.03738385 3.58262133 40 13 C40 13.66 40 14.32 40 15 C40.680625 15.165 41.36125 15.33 42.0625 15.5 C50.72250914 19.92213233 57.7205724 32.10011104 60.72265625 41.1875 C61.17167974 44.12196338 61.05693622 47.03931651 61 50 C59.5 48.75 59.5 48.75 58 47 C58 45.68 58 44.36 58 43 C57.34 43 56.68 43 56 43 C55.505 40.03 55.505 40.03 55 37 C54.34 37 53.68 37 53 37 C51.74609375 35.35546875 51.74609375 35.35546875 50.4375 33.1875 C50.00308594 32.47980469 49.56867188 31.77210938 49.12109375 31.04296875 C48 29 48 29 47 26 C45.69131055 25.28616939 44.35294171 24.62591609 43 24 C41.60287176 22.94535845 40.22914099 21.85929631 38.875 20.75 C25.02142885 9.91493053 11.31589977 6.44976363 -6 6 C-6 5.67 -6 5.34 -6 5 C-4.35 4.67 -2.7 4.34 -1 4 C-0.67 2.68 -0.34 1.36 0 0 Z " fill="#00D2F5" transform="translate(150,129)"/>
<path d="M0 0 C1.91796875 0.0390625 1.91796875 0.0390625 4 1 C5.23828125 3.7734375 5.23828125 3.7734375 6.3125 7.375 C8.56064926 14.33715393 11.71271658 20.04030645 16 26 C16.556875 26.77988281 17.11375 27.55976562 17.6875 28.36328125 C22.44466109 34.73919854 27.85790075 41.56141199 34.7734375 45.6328125 C35.50820312 46.08398438 36.24296875 46.53515625 37 47 C37 47.66 37 48.32 37 49 C39.64 49.66 42.28 50.32 45 51 C45 51.66 45 52.32 45 53 C46.15628906 53.29003906 46.15628906 53.29003906 47.3359375 53.5859375 C48.33882812 53.84632812 49.34171875 54.10671875 50.375 54.375 C51.87160156 54.75785156 51.87160156 54.75785156 53.3984375 55.1484375 C56 56 56 56 58 58 C51.94042732 58.63784976 47.39288408 56.44578686 42 54 C41.02289063 53.56429687 40.04578125 53.12859375 39.0390625 52.6796875 C28.66507329 47.79937895 19.40930408 40.81665793 12 32 C12 31.34 12 30.68 12 30 C11.34 30 10.68 30 10 30 C8.4921875 27.8828125 8.4921875 27.8828125 6.875 25.125 C6.33617187 24.22007813 5.79734375 23.31515625 5.2421875 22.3828125 C4 20 4 20 4 18 C3.34 18 2.68 18 2 18 C-0.8339361 11.95508051 -2.82128713 7.58465347 -1 1 C-0.67 0.67 -0.34 0.34 0 0 Z " fill="#0092DB" transform="translate(37,68)"/>
<path d="M0 0 C9.81276143 4.12344762 16.5469418 9.57026905 24 17 C24.60714844 17.56332031 25.21429688 18.12664062 25.83984375 18.70703125 C27 20 27 20 27 22 C27.66 22 28.32 22 29 22 C29 22.66 29 23.32 29 24 C29.66 24 30.32 24 31 24 C31 24.99 31 25.98 31 27 C31.66 27 32.32 27 33 27 C33.96087136 28.89454824 34.91858969 30.79069581 35.875 32.6875 C36.40867188 33.74324219 36.94234375 34.79898438 37.4921875 35.88671875 C40.2140986 41.50683053 41.62570096 44.72943917 40 51 C38.68 51.99 37.36 52.98 36 54 C35.01 49.05 35.01 49.05 34 44 C33.34 44 32.68 44 32 44 C31.62875 42.88625 31.2575 41.7725 30.875 40.625 C29.19913745 36.09126558 26.794607 32.16865237 24.20703125 28.1015625 C23 26 23 26 23 24 C22.34 24 21.68 24 21 24 C20.05723412 22.58585118 19.12014748 21.16743272 18.21875 19.7265625 C16.88840926 17.84191312 15.41465376 16.34398449 13.75 14.75 C12.8425 13.8425 11.935 12.935 11 12 C11 11.34 11 10.68 11 10 C10.4225 9.71125 9.845 9.4225 9.25 9.125 C7.16666667 8.08333333 5.08333333 7.04166667 3 6 C3 5.34 3 4.68 3 4 C1.68 3.34 0.36 2.68 -1 2 C-0.67 1.34 -0.34 0.68 0 0 Z " fill="#0192DB" transform="translate(168,200)"/>
<path d="M0 0 C0.33 0 0.66 0 1 0 C1 13.86 1 27.72 1 42 C-6.88025568 43.12575081 -6.88025568 43.12575081 -10.66259766 43.06933594 C-11.50682281 43.05892273 -12.35104797 43.04850952 -13.22085571 43.03778076 C-14.55399307 43.01134491 -14.55399307 43.01134491 -15.9140625 42.984375 C-16.84672943 42.96787903 -17.77939636 42.95138306 -18.74032593 42.93438721 C-20.70194627 42.89706368 -22.66350808 42.85654114 -24.625 42.81298828 C-27.62232908 42.75005608 -30.61948523 42.70871708 -33.6171875 42.66796875 C-35.5286734 42.62893146 -37.44013361 42.58861079 -39.3515625 42.546875 C-40.69077255 42.53258453 -40.69077255 42.53258453 -42.05703735 42.51800537 C-46.82006713 42.38714127 -50.136426 42.11273787 -54 39 C-54 38.67 -54 38.34 -54 38 C-53.0925 37.87625 -52.185 37.7525 -51.25 37.625 C-48.12914903 37.19198084 -48.12914903 37.19198084 -46.07769775 35.96939087 C-43.67693217 34.84926633 -42.14214008 34.78901896 -39.50683594 34.86474609 C-38.18591949 34.89500381 -38.18591949 34.89500381 -36.83831787 34.9258728 C-35.42561615 34.97416733 -35.42561615 34.97416733 -33.984375 35.0234375 C-33.01340881 35.04846344 -32.04244263 35.07348938 -31.04205322 35.09927368 C-27.94434155 35.18136961 -24.84727731 35.278 -21.75 35.375 C-19.64846385 35.43325016 -17.54690122 35.49055321 -15.4453125 35.546875 C-10.29636487 35.68515637 -5.14854842 35.84308378 0 36 C0 24.12 0 12.24 0 0 Z " fill="#1ADBF3" transform="translate(149,92)"/>
<path d="M0 0 C0.33 0 0.66 0 1 0 C1.01030746 0.549478 1.02061493 1.09895599 1.03123474 1.66508484 C1.32844373 17.44394969 1.64867278 33.22224345 2 49 C2.01933594 49.87456848 2.03867188 50.74913696 2.05859375 51.65020752 C2.16785121 56.51740803 2.29563588 61.38364064 2.4375 66.25 C2.46448975 67.39944092 2.49147949 68.54888184 2.51928711 69.7331543 C2.5528833 70.77511963 2.58647949 71.81708496 2.62109375 72.890625 C2.6461499 73.76750977 2.67120605 74.64439453 2.69702148 75.54785156 C3.29007889 80.34774563 4.84142689 83.29165065 8.625 86.25 C9.76269188 87.15086623 10.89152027 88.06342354 12 89 C12 89.33 12 89.66 12 90 C10.5629191 90.05422947 9.12524538 90.09289723 7.6875 90.125 C6.88699219 90.14820313 6.08648437 90.17140625 5.26171875 90.1953125 C3 90 3 90 0 88 C-0.165 87.319375 -0.33 86.63875 -0.5 85.9375 C-0.7475 84.9784375 -0.7475 84.9784375 -1 84 C-1.99 83.67 -2.98 83.34 -4 83 C-2.515 82.505 -2.515 82.505 -1 82 C-0.505 41.41 -0.505 41.41 0 0 Z " fill="#07B5E0" transform="translate(93,38)"/>
<path d="M0 0 C0.33 0 0.66 0 1 0 C1 25.41 1 50.82 1 77 C-0.68373405 73.6325319 -1.68218415 70.84984234 -2.625 67.25 C-2.88539063 66.26515625 -3.14578125 65.2803125 -3.4140625 64.265625 C-3.60742188 63.51796875 -3.80078125 62.7703125 -4 62 C-3.01 62.33 -2.02 62.66 -1 63 C-0.67 42.21 -0.34 21.42 0 0 Z " fill="#0077B5" transform="translate(212,102)"/>
<path d="M0 0 C0.24492188 0.58394531 0.48984375 1.16789062 0.7421875 1.76953125 C2.203771 4.36134547 3.83779636 5.79789269 6.125 7.6875 C7.43195447 8.773528 8.72814127 9.87307401 10 11 C10 11.33 10 11.66 10 12 C8.5629191 12.05422947 7.12524538 12.09289723 5.6875 12.125 C4.88699219 12.14820313 4.08648437 12.17140625 3.26171875 12.1953125 C1 12 1 12 -2 10 C-2.165 9.319375 -2.33 8.63875 -2.5 7.9375 C-2.665 7.298125 -2.83 6.65875 -3 6 C-3.99 5.67 -4.98 5.34 -6 5 C-5.01 4.67 -4.02 4.34 -3 4 C-2.67 3.01 -2.34 2.02 -2 1 C-1.34 1.33 -0.68 1.66 0 2 C0 1.34 0 0.68 0 0 Z " fill="#0CB7E2" transform="translate(95,116)"/>
<path d="M0 0 C0 2.64 0 5.28 0 8 C-3.63 8 -7.26 8 -11 8 C-10.01 7.67 -9.02 7.34 -8 7 C-8 5.02 -8 3.04 -8 1 C-1.125 0 -1.125 0 0 0 Z " fill="#006BB8" transform="translate(94,191)"/>
<path d="M0 0 C2.7053871 4.05808065 5 8.04889399 5 13 C5.66 13 6.32 13 7 13 C7.66 14.32 8.32 15.64 9 17 C7.68 16.67 6.36 16.34 5 16 C4.34 16.99 3.68 17.98 3 19 C2.67 15.37 2.34 11.74 2 8 C0.68 8 -0.64 8 -2 8 C-1.34 5.36 -0.68 2.72 0 0 Z " fill="#0ACAF2" transform="translate(34,73)"/>
<path d="M0 0 C0.99 0 1.98 0 3 0 C3 13.2 3 26.4 3 40 C2.67 40 2.34 40 2 40 C1.97494385 39.00145996 1.9498877 38.00291992 1.92407227 36.97412109 C1.82951692 33.25036981 1.729416 29.52678426 1.62768555 25.80322266 C1.58451795 24.19518933 1.54283099 22.58711552 1.50268555 20.97900391 C1.44453994 18.66035795 1.38097609 16.34191239 1.31640625 14.0234375 C1.29969376 13.31069672 1.28298126 12.59795593 1.26576233 11.86361694 C1.14739436 7.82655494 0.76231929 3.96623061 0 0 Z " fill="#00C1E0" transform="translate(211,182)"/>
<path d="M0 0 C2.475 0.99 2.475 0.99 5 2 C5.33 1.34 5.66 0.68 6 0 C10.63714903 1.46436285 10.63714903 1.46436285 12.3125 3.9375 C13 6 13 6 13 9 C10.03216871 7.54331217 7.13584687 5.98767914 4.25 4.375 C3.45078125 3.92898437 2.6515625 3.48296875 1.828125 3.0234375 C1.22484375 2.68570313 0.6215625 2.34796875 0 2 C0 1.34 0 0.68 0 0 Z " fill="#00C4ED" transform="translate(171,200)"/>
<path d="M0 0 C2.0625 0.4375 2.0625 0.4375 4 1 C4.1875 3.875 4.1875 3.875 4 7 C3.01 7.66 2.02 8.32 1 9 C0.01 8.67 -0.98 8.34 -2 8 C-1.125 1.125 -1.125 1.125 0 0 Z " fill="#0898D6" transform="translate(37,68)"/>
<path d="M0 0 C3.3 0.33 6.6 0.66 10 1 C10 1.66 10 2.32 10 3 C10.94875 3.144375 11.8975 3.28875 12.875 3.4375 C16 4 16 4 18 5 C18 5.66 18 6.32 18 7 C13.51006131 6.41347648 9.77456816 5.2356462 5.625 3.4375 C4.56539062 2.98246094 3.50578125 2.52742187 2.4140625 2.05859375 C1.61742187 1.70925781 0.82078125 1.35992187 0 1 C0 0.67 0 0.34 0 0 Z " fill="#0097D9" transform="translate(149,194)"/>
<path d="M0 0 C0.28875 0.598125 0.5775 1.19625 0.875 1.8125 C2.04742026 4.19327792 2.04742026 4.19327792 4 7 C-0.05431692 8.15837626 -2.21812119 7.83691257 -6 6 C-5.67 5.34 -5.34 4.68 -5 4 C-4.34 4 -3.68 4 -3 4 C-2.67 3.01 -2.34 2.02 -2 1 C-1.34 1.33 -0.68 1.66 0 2 C0 1.34 0 0.68 0 0 Z " fill="#18BFE6" transform="translate(95,116)"/>
<path d="M0 0 C0.0272415 1.41655793 0.04650467 2.83327045 0.0625 4.25 C0.07410156 5.03890625 0.08570313 5.8278125 0.09765625 6.640625 C0.00385306 8.90691002 -0.36758937 10.8288895 -1 13 C-1.66 13 -2.32 13 -3 13 C-3 9.04 -3 5.08 -3 1 C-1 0 -1 0 0 0 Z " fill="#11C1E2" transform="translate(214,223)"/>
<path d="M0 0 C0.99 0.33 1.98 0.66 3 1 C2.01 1 1.02 1 0 1 C0 0.67 0 0.34 0 0 Z M-1 1 C0.32 2.32 1.64 3.64 3 5 C0 7 0 7 -4 7 C-3.42655063 4.13275314 -3.1385485 3.1385485 -1 1 Z " fill="#1BC2E6" transform="translate(180,273)"/>
<path d="M0 0 C1.50433594 0.29197266 1.50433594 0.29197266 3.0390625 0.58984375 C4.19535156 0.82380859 4.19535156 0.82380859 5.375 1.0625 C5.045 1.7225 4.715 2.3825 4.375 3.0625 C2.93663249 2.94791307 1.49929034 2.82040884 0.0625 2.6875 C-0.73800781 2.61789062 -1.53851563 2.54828125 -2.36328125 2.4765625 C-4.625 2.0625 -4.625 2.0625 -7.625 0.0625 C-4.81015955 -1.34492022 -3.05563887 -0.60402164 0 0 Z " fill="#2E9CC4" transform="translate(55.625,253.9375)"/>
<path d="M0 0 C0.99 0.33 1.98 0.66 3 1 C2.01 2.98 1.02 4.96 0 7 C-0.66 7 -1.32 7 -2 7 C-2 7.66 -2 8.32 -2 9 C-2.99 9.33 -3.98 9.66 -5 10 C-5 9.01 -5 8.02 -5 7 C-3.68 6.67 -2.36 6.34 -1 6 C-0.67 4.02 -0.34 2.04 0 0 Z " fill="#31A2C8" transform="translate(87,241)"/>
<path d="M0 0 C0.33 0 0.66 0 1 0 C1 1.65 1 3.3 1 5 C1.99 5 2.98 5 4 5 C4 5.99 4 6.98 4 8 C2.68 8 1.36 8 0 8 C-1.125 2.25 -1.125 2.25 0 0 Z " fill="#42C8E5" transform="translate(150,279)"/>
<path d="M0 0 C0 3.99904969 -1.72586967 5.80200422 -4 9 C-4.8125 7.3125 -4.8125 7.3125 -5 5 C-2.5625 2.25 -2.5625 2.25 0 0 Z " fill="#33CEE7" transform="translate(205,253)"/>
<path d="M0 0 C0 0.66 0 1.32 0 2 C-3.3 2.66 -6.6 3.32 -10 4 C-9 2 -9 2 -6.6875 0.875 C-4 0 -4 0 0 0 Z " fill="#44AACC" transform="translate(174,64)"/>
<path d="M0 0 C0.66 0 1.32 0 2 0 C3.46726798 3.81489674 2.43336419 6.29011622 1 10 C0.67 10 0.34 10 0 10 C0 6.7 0 3.4 0 0 Z " fill="#1EBFE2" transform="translate(209,237)"/>
<path d="M0 0 C0.66 0.66 1.32 1.32 2 2 C1.75 5.0625 1.75 5.0625 1 8 C0.01 8.495 0.01 8.495 -1 9 C-0.67 6.03 -0.34 3.06 0 0 Z " fill="#379DC6" transform="translate(91,233)"/>
<path d="M0 0 C0.99 0 1.98 0 3 0 C3 2.64 3 5.28 3 8 C0.4345406 5.4345406 0.45953913 3.52313332 0 0 Z " fill="#00C9EB" transform="translate(211,182)"/>
</svg>
